<svg version="1" xmlns="http://www.w3.org/2000/svg" width="437.333" height="437.333" viewBox="0 0 328.000000 328.000000"><path d="M143 31.6c-35 5.7-65.2 24-86.5 52.3-11.6 15.3-21.4 37.4-24 54.1-.3 1.9-.9 6-1.4 8.9-1.9 12-.6 35.9 2.5 47.6 6.7 25.2 18 45.5 35.1 62.8 18.3 18.6 42.5 31.6 69.5 37.4 11.6 2.5 38.9 2.4 50.7-.1 41.6-8.9 75.7-34.8 93.6-71.1 7.2-14.7 9.9-23 13.1-40 1.5-8.1.9-36.5-.9-45.4-11.9-55.9-55-97.5-110.6-106.7-7-1.2-33.7-1.1-41.1.2zm34 32.7c7.4 1.2 9.9 1.7 16.6 3.8 15.2 4.6 28.4 12.8 40.5 24.9 18.9 18.9 28.7 41.7 29.3 68.5 1 39.7-22.6 77-58.9 93.2-7.4 3.4-18 6.7-19.4 6.1-.5-.2 3.2-7.3 8.1-15.8 35.7-61.4 36.1-62.3 36.6-67.6.4-4.5.1-5.5-2.4-8.3-5.1-5.7-5.1-5.7-65-5.4-30.2.1-55.5.3-56.3.4-.7.1-3.1 1.9-5.2 3.9-3.3 3.2-3.9 4.3-3.9 7.9 0 5.8 1.3 8.1 37.1 69.8 4.9 8.4 8.9 15.4 8.9 15.7 0 1.1-17.2-5-24.4-8.6-43.9-22-65.3-73-50.4-119.8 9-28.1 30.7-51.4 58.2-62.4 3.8-1.5 7.6-2.9 8.5-3.1.9-.1 3.4-.8 5.6-1.3 2.2-.6 6.3-1.4 9-1.8 2.8-.3 5.1-.7 5.2-.8.5-.4 18.8.2 22.3.7z"/></svg>